<svg xmlns="http://www.w3.org/2000/svg" viewBox="0 0 76.11 76.02"><defs><style>.cls-1{fill:#fff;}</style></defs><title>Ресурс 11</title><g id="Слой_2" data-name="Слой 2"><g id="Слой_2-2" data-name="Слой 2"><path class="cls-1" d="M.1,38c0-4.09-.06-8.19,0-12.29a43,43,0,0,1,1-9.52A20.78,20.78,0,0,1,5.8,7,20.35,20.35,0,0,1,18,.63,42.06,42.06,0,0,1,24.44.11C33.06,0,41.68,0,50.29,0A40,40,0,0,1,59.92,1,20.69,20.69,0,0,1,69.1,5.68a20.64,20.64,0,0,1,6.52,13.1A44.91,44.91,0,0,1,76,24.46c.07,8.69.13,17.38.08,26.08a39.55,39.55,0,0,1-.92,9.19A20.7,20.7,0,0,1,70.41,69a20.33,20.33,0,0,1-11,6.14,33.09,33.09,0,0,1-5.7.67c-9.31.41-18.63.14-27.94.15a41.64,41.64,0,0,1-8.1-.65A21.09,21.09,0,0,1,7.5,70.64a19.91,19.91,0,0,1-6.22-10,28.89,28.89,0,0,1-1-7Q.14,45.8,0,38Zm38,31.16v-.09c3.19,0,6.37,0,9.56,0,2,0,3.92-.13,5.89-.18a21.69,21.69,0,0,0,6.14-1,12.38,12.38,0,0,0,8.1-7.65,24.27,24.27,0,0,0,1.3-7.74c.09-2,.18-4,.18-6,0-5.95,0-11.9-.08-17.84,0-2.05-.13-4.09-.18-6.14a21.64,21.64,0,0,0-1-6.18,12.36,12.36,0,0,0-6.23-7.41,17.66,17.66,0,0,0-7.24-1.8c-2.82-.17-5.64-.3-8.47-.29-7.81,0-15.63-.17-23.44.25A20.77,20.77,0,0,0,15,8.7a12.07,12.07,0,0,0-6.12,6.09,18.31,18.31,0,0,0-1.58,6.79C7.09,24.27,7,27,7,29.66c0,7.21.09,14.43.18,21.64a44,44,0,0,0,.4,5.38,13.45,13.45,0,0,0,4.19,8.46,13.33,13.33,0,0,0,5,2.82,24.79,24.79,0,0,0,6.63,1c2.27.1,4.54.17,6.82.19C32.82,69.17,35.46,69.14,38.09,69.14Z"/><path class="cls-1" d="M38.09,57.54A19.56,19.56,0,1,1,57.68,38.18,19.57,19.57,0,0,1,38.09,57.54Zm0-32.18A12.63,12.63,0,1,0,50.74,38,12.61,12.61,0,0,0,38.13,25.36Z"/><path class="cls-1" d="M58.31,22.33a4.59,4.59,0,1,1,.15-9.18,4.59,4.59,0,0,1-.15,9.18Z"/></g></g></svg>