<svg xmlns="http://www.w3.org/2000/svg" viewBox="0 0 110 110"><defs><style>.cls-1{fill:#fff;}</style></defs><title>Ресурс 9</title><g id="Слой_2" data-name="Слой 2"><g id="Слой_2-2" data-name="Слой 2"><path class="cls-1" d="M88.13,27.92a3,3,0,0,0-.79-.08H23.62a1.77,1.77,0,0,0-1.94,1.93V61.3a2.58,2.58,0,0,0,0,.48,1.76,1.76,0,0,0,1.87,1.45H87.33a3.71,3.71,0,0,0,.58,0,1.75,1.75,0,0,0,1.47-1.88V29.46A1.7,1.7,0,0,0,88.13,27.92Z"/><path class="cls-1" d="M55.65,66.13a2.1,2.1,0,1,0,2.07,2.12A2.1,2.1,0,0,0,55.65,66.13Z"/><path class="cls-1" d="M55,0a55,55,0,1,0,55,55A55,55,0,0,0,55,0ZM65.92,87a.47.47,0,0,1-.46.32c-1,.11-1.91.25-2.87.31a101.24,101.24,0,0,1-14.15-.06c-.75,0-1.48-.18-2.23-.26-.38,0-.46-.31-.54-.61a.54.54,0,0,1,.26-.65,4.58,4.58,0,0,0,1.48-1.49,5.18,5.18,0,0,0,.49-2c.25-2.43.48-4.87.71-7.3,0-.14,0-.28,0-.46h14c.3,0,.39.07.42.38.25,2.65.54,5.31.79,8A3.86,3.86,0,0,0,65.63,86C66.1,86.34,66.12,86.47,65.92,87ZM88.29,73.23H22.71a4.79,4.79,0,0,1-4.77-3.86,5.59,5.59,0,0,1-.1-1.15q0-19.6,0-39.2a4.81,4.81,0,0,1,5-5H88.42a4.78,4.78,0,0,1,4.71,3.87,5.26,5.26,0,0,1,.1,1.05V68.3A4.82,4.82,0,0,1,88.29,73.23Z"/></g></g></svg>