<svg xmlns="http://www.w3.org/2000/svg" viewBox="0 0 110 110"><defs><style>.cls-1{fill:#fff;}</style></defs><title>Ресурс 8</title><g id="Слой_2" data-name="Слой 2"><g id="Слой_2-2" data-name="Слой 2"><path class="cls-1" d="M55,0a55,55,0,1,0,55,55A55,55,0,0,0,55,0ZM82.24,75.49A23.76,23.76,0,0,1,74,80.59a47.11,47.11,0,0,1-12.38,3,59.26,59.26,0,0,1-12.56.07,44.61,44.61,0,0,1-15.24-4,19.53,19.53,0,0,1-7.14-5.43,9.15,9.15,0,0,1-2-5.85c0-5.47,0-10.93,0-16.39V51.3l3.42,1.53c1.23.56,2.45,1.13,3.69,1.65a.68.68,0,0,1,.48.75q0,6.42,0,12.84v.56L36,64.91l3.86,3.87V58.13l.58.25q7.1,3.18,14.18,6.39a1,1,0,0,0,.89,0L84.88,51.53l.51-.21v.6c0,5.34-.06,10.69,0,16A10,10,0,0,1,82.24,75.49ZM55.49,60.21a.94.94,0,0,1-.89,0l-44.51-20-.53-.25,11.71-5.27,33.32-15a1,1,0,0,1,.9,0l44.64,20.11.38.19a4.41,4.41,0,0,1-.42.22Z"/></g></g></svg>