<svg xmlns="http://www.w3.org/2000/svg" viewBox="0 0 110 110"><defs><style>.cls-1{fill:#fff;}</style></defs><title>Ресурс 7</title><g id="Слой_2" data-name="Слой 2"><g id="Слой_2-2" data-name="Слой 2"><path class="cls-1" d="M55,0a55,55,0,1,0,55,55A55,55,0,0,0,55,0ZM33,80.44a28,28,0,0,1-2.71-.79,11.13,11.13,0,0,1-3.52-2A5,5,0,0,1,26,76.8a1.45,1.45,0,0,1-.14-1.48,5.5,5.5,0,0,0-.06-4.46A4,4,0,0,0,21,68.55a6.43,6.43,0,0,0-1.95.91.71.71,0,0,1-.51.08A2.88,2.88,0,0,1,17,68.44a10.78,10.78,0,0,1-1.7-3.3c-.31-.89-.58-1.79-.87-2.69-.09-.27-.22-.52-.33-.78V61a5.56,5.56,0,0,1,.46-.87,1.29,1.29,0,0,1,1.37-.51,1.63,1.63,0,0,0,1-.28A5.11,5.11,0,0,0,19.25,56a4.31,4.31,0,0,0-2.64-4.77A11.61,11.61,0,0,0,15.3,51c-.63-.09-.73-.16-.84-.78a6.46,6.46,0,0,1,.24-2.93,18.29,18.29,0,0,1,2.37-5.18c.54-.84.89-.91,1.81-.48a11.31,11.31,0,0,0,2.1.89,4.43,4.43,0,0,0,5.24-4.26,4.06,4.06,0,0,0-1.08-3,.92.92,0,0,1,0-1.3,2.34,2.34,0,0,1,.45-.49A21.6,21.6,0,0,1,33,29.85a1.79,1.79,0,0,1,1.93.87.83.83,0,0,1,.11.37,3.5,3.5,0,0,0,1.62,3,6.19,6.19,0,0,0,3.8,1.12,3.42,3.42,0,0,0,2.63-1.57A4.76,4.76,0,0,0,44,31.2a.82.82,0,0,1,.21-.45,2.27,2.27,0,0,1,2.61-.5l5.85,2.55a1.48,1.48,0,0,1,.77,2.14,2.13,2.13,0,0,1-.31.47,3,3,0,0,0-.76,2.18,15,15,0,0,0,.19,2.12,3,3,0,0,0,1.4,2,4.89,4.89,0,0,0,4.11.6,3.87,3.87,0,0,0,1.13-.61,2.87,2.87,0,0,1,1.51-.64A1.33,1.33,0,0,1,62,41.7c.42.68.88,1.33,1.34,2L52.5,54.15a19.43,19.43,0,0,0-1.63-4.69,14.87,14.87,0,0,0-2.49-3.64,10.71,10.71,0,0,0-6.93-3.4,13.65,13.65,0,0,0-7.71,1.27A12.51,12.51,0,0,0,27,52.41a13.56,13.56,0,0,0-.18,6.11,10.75,10.75,0,0,0,3.74,5.91,20.21,20.21,0,0,0,7.54,3.91l.37.11c-1.82,1.13-2.52,3-3.2,4.79A36.3,36.3,0,0,0,33.61,80C33.52,80.51,33.5,80.57,33,80.44Zm2.09,5.43c.26-1.57.51-3.09.76-4.62,1.09.34,3.28,1.9,3.48,3.46Zm12.82-3.74-7,2.11a.36.36,0,0,1-.5-.18c-.43-.6-.87-1.21-1.36-1.77a6,6,0,0,0-2.72-1.85c.78-2.7,1.54-5.38,2.33-8.13A20.57,20.57,0,0,1,48.27,82Zm1.53-1.35a26.71,26.71,0,0,0-9.67-9.65l.28-.28L78.93,32a.44.44,0,0,1,.62-.08A20.52,20.52,0,0,1,85.73,37a24.85,24.85,0,0,1,3.13,4.79ZM93.79,36.49,90.28,40a2.27,2.27,0,0,0-.23.31,21.45,21.45,0,0,0-9.3-9.74l.45-.49c1.07-1.18,2.14-2.35,3.2-3.53a.34.34,0,0,1,.48-.11,17,17,0,0,1,9,8.59c.06.13.14.25.21.37v.87A2.09,2.09,0,0,0,93.79,36.49Z"/></g></g></svg>