<svg xmlns="http://www.w3.org/2000/svg" viewBox="0 0 90.15 75.95"><defs><style>.cls-1{fill:#fff;}</style></defs><title>Path 412</title><g id="Слой_2" data-name="Слой 2"><g id="Слой_2-2" data-name="Слой 2"><path id="Path_412" data-name="Path 412" class="cls-1" d="M84.36.3,1.92,32.43a3,3,0,0,0,.24,5.68l21,6.19,7.81,24.81a3.6,3.6,0,0,0,6,1.43L47.76,59.48,69,75.08a4.44,4.44,0,0,0,7-2.66L90.05,5.12A4.24,4.24,0,0,0,84.36.3ZM74,15.23,35.73,49.1a2,2,0,0,0-.68,1.31L33.57,63.52a.4.4,0,0,1-.77.07L26.73,44a2.08,2.08,0,0,1,.88-2.36l45.23-28A1,1,0,0,1,74,15.23Z"/></g></g></svg>