<svg xmlns="http://www.w3.org/2000/svg" viewBox="0 0 76.08 75.97"><defs><style>.cls-1{fill:#fff;}</style></defs><title>Ресурс 12</title><g id="Слой_2" data-name="Слой 2"><g id="Слой_2-2" data-name="Слой 2"><path class="cls-1" d="M43.72,75.68C31.14,77,20.89,73.89,12.26,66A36.4,36.4,0,0,1,.3,42.74a37,37,0,0,1,8-28.45,36.63,36.63,0,0,1,26-14.1A37,37,0,0,1,63.83,10a36.44,36.44,0,0,1,12,23.29,37.12,37.12,0,0,1-9.73,30.5A36.6,36.6,0,0,1,43.72,75.68ZM60.37,54.81c1.81-.11,2.47-1.43,1.52-3A26.79,26.79,0,0,0,59,48.16c-1.29-1.42-2.74-2.69-4.06-4.08-1.12-1.17-1.17-1.85-.24-3.15,1.72-2.42,3.56-4.75,5.22-7.2a24.06,24.06,0,0,0,2.23-4.23c.48-1.16-.19-1.94-1.45-2H60l-7.65,0c-1.39,0-1.71.29-2.32,1.55-1.09,2.27-2.17,4.56-3.42,6.74a21.67,21.67,0,0,1-2.84,3.72c-1,1-1.82.71-2.16-.68a1.87,1.87,0,0,1,0-.25c0-1.27-.11-2.54-.1-3.8,0-1.88.11-3.76.1-5.63a2.29,2.29,0,0,0-1.22-2.36,6.66,6.66,0,0,0-1.81-.44,26.66,26.66,0,0,0-6.62,0,4.32,4.32,0,0,0-3,1.24c-.5.59-.42.8.34,1a2.51,2.51,0,0,1,2.1,2,26.71,26.71,0,0,1,.2,6.86,7.89,7.89,0,0,1-.32,1.65c-.34,1.16-1.14,1.41-2,.57a13.07,13.07,0,0,1-1.76-2.1,44.61,44.61,0,0,1-4.58-8.46,2.34,2.34,0,0,0-2.51-1.67l-6.82,0c-1.44.07-2,.92-1.34,2.19,1.46,2.95,2.89,5.93,4.45,8.82a51.92,51.92,0,0,0,6.9,10.11,18.47,18.47,0,0,0,15.79,6.31,2,2,0,0,0,2.17-2c0-.35,0-.71.07-1.06a5.48,5.48,0,0,1,.91-2.94,1.23,1.23,0,0,1,1.61-.41,3,3,0,0,1,.89.58c1,1,1.92,2,2.87,3.05,1.16,1.25,3,2.7,4.14,2.77S60.37,54.81,60.37,54.81Z"/></g></g></svg>